<?xml version="1.0" encoding="UTF-8" standalone="no"?>
<!-- Created with Inkscape (http://www.inkscape.org/) -->

<svg
   xmlns:dc="http://purl.org/dc/elements/1.1/"
   xmlns:cc="http://creativecommons.org/ns#"
   xmlns:rdf="http://www.w3.org/1999/02/22-rdf-syntax-ns#"
   xmlns:svg="http://www.w3.org/2000/svg"
   xmlns="http://www.w3.org/2000/svg"
   xmlns:sodipodi="http://sodipodi.sourceforge.net/DTD/sodipodi-0.dtd"
   xmlns:inkscape="http://www.inkscape.org/namespaces/inkscape"
   width="400"
   height="450"
   viewBox="0 0 105.83333 119.0625"
   version="1.1"
   id="svg1212"
   sodipodi:docname="hub-spoke-no-gateway-routing.svg"
   inkscape:version="0.92.4 (5da689c313, 2019-01-14)">
  <defs
     id="defs1206" />
  <sodipodi:namedview
     id="base"
     pagecolor="#ffffff"
     bordercolor="#666666"
     borderopacity="1.0"
     inkscape:pageopacity="0.0"
     inkscape:pageshadow="2"
     inkscape:zoom="2.8"
     inkscape:cx="167.25119"
     inkscape:cy="217.14286"
     inkscape:document-units="mm"
     inkscape:current-layer="layer1"
     showgrid="false"
     units="px"
     inkscape:showpageshadow="false"
     showborder="false"
     inkscape:window-width="3240"
     inkscape:window-height="2055"
     inkscape:window-x="-13"
     inkscape:window-y="-13"
     inkscape:window-maximized="1" />
  <metadata
     id="metadata1209">
    <rdf:RDF>
      <cc:Work
         rdf:about="">
        <dc:format>image/svg+xml</dc:format>
        <dc:type
           rdf:resource="http://purl.org/dc/dcmitype/StillImage" />
        <dc:title></dc:title>
      </cc:Work>
    </rdf:RDF>
  </metadata>
  <g
     inkscape:label="Layer 1"
     inkscape:groupmode="layer"
     id="layer1"
     transform="translate(0,-177.93748)">
    <rect
       style="fill:#eeeeff;fill-opacity:0;stroke:#288fde;stroke-width:0.26458332;stroke-miterlimit:4;stroke-dasharray:none;stroke-opacity:1"
       id="rect1957"
       width="115.09375"
       height="124.63765"
       x="-5.1971722"
       y="174.81918"
       ry="2.0539207" />
    <line
       class="cls-2"
       x1="43.587837"
       y1="237.97108"
       x2="61.986969"
       y2="206.89577"
       id="line985"
       style="fill:none;stroke:#39b54a;stroke-width:1.58749998px;stroke-miterlimit:10" />
    <line
       class="cls-2"
       x1="62.235664"
       y1="267.30807"
       x2="43.339119"
       y2="238.21979"
       id="line987"
       style="fill:none;stroke:#39b54a;stroke-width:1.58749998px;stroke-miterlimit:10" />
    <rect
       class="cls-3"
       y="213.11084"
       width="39.777458"
       height="52.704998"
       id="rect989"
       x="3.8103721"
       style="fill:#d8d8d8;stroke-width:0.26458332"
       ry="1.2588539" />
    <rect
       class="cls-4"
       x="5.3026357"
       y="221.31291"
       width="15.663334"
       height="35.552063"
       id="rect991"
       style="fill:#f2f2f2;stroke-width:0.26458332" />
    <path
       class="cls-5"
       d="m 20.965964,221.31292 h -0.79375 v 0.26458 h 0.52916 v 0.56356 h 0.26459 z m -1.5875,0 h -0.79375 v 0.26458 h 0.79375 z m -1.5875,0 h -0.79375 v 0.26458 h 0.79375 z m -1.5875,0 h -0.79375 v 0.26458 h 0.79375 z m -1.5875,0 h -0.79375 v 0.26458 h 0.79375 z m -1.5875,0 h -0.79375 v 0.26458 h 0.79375 z m -1.5875,0 h -0.79375 v 0.26458 h 0.79375 z m -1.5874999,0 h -0.79375 v 0.26458 h 0.79375 z m -1.5875,0 h -0.79375 v 0.26458 h 0.79375 z m -1.5875,0 h -0.79375 v 0.26458 h 0.79375 z m -1.11125,0.21166 h -0.26459 v 0.79375 h 0.26459 z m 0,1.5875 h -0.26459 v 0.79375 h 0.26459 z m 0,1.5875 h -0.26459 v 0.79375 h 0.26459 z m 0,1.5875 h -0.26459 v 0.79375 h 0.26459 z m 0,1.5875 h -0.26459 v 0.79375 h 0.26459 z m 0,1.5875 h -0.26459 v 0.79375 h 0.26459 z m 0,1.5875 h -0.26459 v 0.79375 h 0.26459 z m 0,1.5875 h -0.26459 v 0.79375 h 0.26459 z m 0,1.5875 h -0.26459 v 0.79375 h 0.26459 z m 0,1.5875 h -0.26459 v 0.79375 h 0.26459 z m 0,1.5875 h -0.26459 v 0.79375 h 0.26459 z m 0,1.5875 h -0.26459 v 0.79375 h 0.26459 z m 0,1.5875 h -0.26459 v 0.79375 h 0.26459 z m 0,1.5875 h -0.26459 v 0.79375 h 0.26459 z m 0,1.5875 h -0.26459 v 0.79375 h 0.26459 z m 0,1.5875 h -0.26459 v 0.79375 h 0.26459 z m 0,1.5875 h -0.26459 v 0.79375 h 0.26459 z m 0,1.5875 h -0.26459 v 0.79375 h 0.26459 z m 0,1.5875 h -0.26459 v 0.79375 h 0.26459 z m 0,1.5875 h -0.26459 v 0.79375 h 0.26459 z m 0,1.5875 h -0.26459 v 0.79375 h 0.26459 z m 0,1.5875 h -0.26459 v 0.79375 h 0.26459 z m 0,1.5875 h -0.26459 v 0.41275 h 0.37836 v -0.26458 h -0.11377 v -0.15081 z m 1.70127,0.15081 h -0.79375 v 0.26459 h 0.79375 z m 1.5875,0 h -0.79375 v 0.26459 h 0.79375 z m 1.5874999,0 H 9.6497341 v 0.26459 h 0.7937499 z m 1.5875,0 h -0.79375 v 0.26459 h 0.79375 z m 1.5875,0 h -0.79375 v 0.26459 h 0.79375 z m 1.5875,0 h -0.79375 v 0.26459 h 0.79375 z m 1.5875,0 h -0.79375 v 0.26459 h 0.79375 z m 1.5875,0 h -0.79375 v 0.26459 h 0.79375 z m 1.5875,0 h -0.79375 v 0.26459 h 0.79375 z m 0.99483,-0.32808 h -0.26458 v 0.59002 h 0.26458 v -0.59266 z m 0,-1.5875 h -0.26458 v 0.79375 h 0.26458 z m 0,-1.5875 h -0.26458 v 0.79375 h 0.26458 z m 0,-1.5875 h -0.26458 v 0.79375 h 0.26458 z m 0,-1.5875 h -0.26458 v 0.79375 h 0.26458 z m 0,-1.5875 h -0.26458 v 0.79375 h 0.26458 z m 0,-1.5875 h -0.26458 v 0.79375 h 0.26458 z m 0,-1.5875 h -0.26458 v 0.79375 h 0.26458 z m 0,-1.5875 h -0.26458 v 0.79375 h 0.26458 z m 0,-1.5875 h -0.26458 v 0.79375 h 0.26458 z m 0,-1.5875 h -0.26458 v 0.79375 h 0.26458 z m 0,-1.5875 h -0.26458 v 0.79375 h 0.26458 z m 0,-1.5875 h -0.26458 v 0.79375 h 0.26458 z m 0,-1.5875 h -0.26458 v 0.79375 h 0.26458 z m 0,-1.5875 h -0.26458 v 0.79375 h 0.26458 z m 0,-1.5875 h -0.26458 v 0.79375 h 0.26458 z m 0,-1.5875 h -0.26458 v 0.79375 h 0.26458 z m 0,-1.5875 h -0.26458 v 0.79375 h 0.26458 z m 0,-1.5875 h -0.26458 v 0.79375 h 0.26458 z m 0,-1.5875 h -0.26458 v 0.79375 h 0.26458 z m 0,-1.5875 h -0.26458 v 0.79375 h 0.26458 z m 0,-1.5875 h -0.26458 v 0.79375 h 0.26458 z"
       id="path993"
       inkscape:connector-curvature="0"
       style="fill:#707070;stroke-width:0.26458332" />
    <rect
       class="cls-4"
       x="24.94265"
       y="221.31291"
       width="15.663334"
       height="35.552063"
       id="rect995"
       style="fill:#f2f2f2;stroke-width:0.26458332" />
    <path
       class="cls-5"
       d="m 40.605984,221.31292 h -0.79375 v 0.26458 h 0.52917 v 0.56356 h 0.26458 z m -1.5875,0 h -0.79375 v 0.26458 h 0.79375 z m -1.5875,0 h -0.79375 v 0.26458 h 0.79375 z m -1.5875,0 h -0.79375 v 0.26458 h 0.79375 z m -1.5875,0 h -0.79375 v 0.26458 h 0.79375 z m -1.5875,0 h -0.79375 v 0.26458 h 0.79375 z m -1.5875,0 h -0.79375 v 0.26458 h 0.79375 z m -1.5875,0 h -0.79375 v 0.26458 h 0.79375 z m -1.5875,0 h -0.79375 v 0.26458 h 0.79375 z m -1.5875,0 h -0.79375 v 0.26458 h 0.79375 z m -1.11125,0.21166 h -0.26458 v 0.79375 h 0.26458 z m 0,1.5875 h -0.26458 v 0.79375 h 0.26458 z m 0,1.5875 h -0.26458 v 0.79375 h 0.26458 z m 0,1.5875 h -0.26458 v 0.79375 h 0.26458 z m 0,1.5875 h -0.26458 v 0.79375 h 0.26458 z m 0,1.5875 h -0.26458 v 0.79375 h 0.26458 z m 0,1.5875 h -0.26458 v 0.79375 h 0.26458 z m 0,1.5875 h -0.26458 v 0.79375 h 0.26458 z m 0,1.5875 h -0.26458 v 0.79375 h 0.26458 z m 0,1.5875 h -0.26458 v 0.79375 h 0.26458 z m 0,1.5875 h -0.26458 v 0.79375 h 0.26458 z m 0,1.5875 h -0.26458 v 0.79375 h 0.26458 z m 0,1.5875 h -0.26458 v 0.79375 h 0.26458 z m 0,1.5875 h -0.26458 v 0.79375 h 0.26458 z m 0,1.5875 h -0.26458 v 0.79375 h 0.26458 z m 0,1.5875 h -0.26458 v 0.79375 h 0.26458 z m 0,1.5875 h -0.26458 v 0.79375 h 0.26458 z m 0,1.5875 h -0.26458 v 0.79375 h 0.26458 z m 0,1.5875 h -0.26458 v 0.79375 h 0.26458 z m 0,1.5875 h -0.26458 v 0.79375 h 0.26458 z m 0,1.5875 h -0.26458 v 0.79375 h 0.26458 z m 0,1.5875 h -0.26458 v 0.79375 h 0.26458 z m 0,1.5875 h -0.26458 v 0.41275 h 0.38893 v -0.26458 h -0.11377 v -0.15081 z m 1.71185,0.14817 h -0.79375 v 0.26458 h 0.79375 z m 1.5875,0 h -0.79375 v 0.26458 h 0.79375 z m 1.5875,0 h -0.79375 v 0.26458 h 0.79375 z m 1.5875,0 h -0.79375 v 0.26458 h 0.79375 z m 1.5875,0 h -0.79375 v 0.26458 h 0.79375 z m 1.5875,0 h -0.79375 v 0.26458 h 0.79375 z m 1.5875,0 h -0.79375 v 0.26458 h 0.79375 z m 1.5875,0 h -0.79375 v 0.26458 h 0.79375 z m 1.5875,0 h -0.79375 v 0.26458 h 0.79375 z m 0.99484,-0.32808 h -0.26459 v 0.59266 h 0.26459 z m 0,-1.5875 h -0.26459 v 0.79375 h 0.26459 z m 0,-1.5875 h -0.26459 v 0.79375 h 0.26459 z m 0,-1.5875 h -0.26459 v 0.79375 h 0.26459 z m 0,-1.5875 h -0.26459 v 0.79375 h 0.26459 z m 0,-1.5875 h -0.26459 v 0.79375 h 0.26459 z m 0,-1.5875 h -0.26459 v 0.79375 h 0.26459 z m 0,-1.5875 h -0.26459 v 0.79375 h 0.26459 z m 0,-1.5875 h -0.26459 v 0.79375 h 0.26459 z m 0,-1.5875 h -0.26459 v 0.79375 h 0.26459 z m 0,-1.5875 h -0.26459 v 0.79375 h 0.26459 z m 0,-1.5875 h -0.26459 v 0.79375 h 0.26459 z m 0,-1.5875 h -0.26459 v 0.79375 h 0.26459 z m 0,-1.5875 h -0.26459 v 0.79375 h 0.26459 z m 0,-1.5875 h -0.26459 v 0.79375 h 0.26459 z m 0,-1.5875 h -0.26459 v 0.79375 h 0.26459 z m 0,-1.5875 h -0.26459 v 0.79375 h 0.26459 z m 0,-1.5875 h -0.26459 v 0.79375 h 0.26459 z m 0,-1.5875 h -0.26459 v 0.79375 h 0.26459 z m 0,-1.5875 h -0.26459 v 0.79375 h 0.26459 z m 0,-1.5875 h -0.26459 v 0.79375 h 0.26459 z m 0,-1.5875 h -0.26459 v 0.79375 h 0.26459 z"
       id="path997"
       inkscape:connector-curvature="0"
       style="fill:#707070;stroke-width:0.26458332" />
    <rect
       class="cls-3"
       x="60.992119"
       width="39.777458"
       height="52.704998"
       id="rect999"
       y="182.77901"
       style="fill:#d8d8d8;stroke-width:0.26458332"
       ry="1.5901312" />
    <rect
       class="cls-4"
       x="63.725273"
       y="190.98373"
       width="33.811104"
       height="35.552063"
       id="rect1001"
       style="fill:#f2f2f2;stroke-width:0.26458332" />
    <path
       class="cls-5"
       d="m 95.951526,190.98108 h -0.79375 v 0.26458 h 0.79375 z m -1.5875,0 h -0.79375 v 0.26458 h 0.79375 z m -1.5875,0 h -0.79375 v 0.26458 h 0.79375 z m -1.5875,0 h -0.79375 v 0.26458 h 0.79375 z m -1.5875,0 h -0.79375 v 0.26458 h 0.79375 z m -1.5875,0 h -0.79375 v 0.26458 h 0.79375 z m -1.5875,0 h -0.79375 v 0.26458 h 0.79375 z m -1.5875,0 h -0.79375 v 0.26458 h 0.79375 z m -1.5875,0 h -0.79375 v 0.26458 h 0.79375 z m -1.5875,0 h -0.79375 v 0.26458 h 0.79375 z m -1.5875,0 h -0.79375 v 0.26458 h 0.79375 z m -1.5875,0 h -0.79375 v 0.26458 h 0.79375 z m -1.5875,0 h -0.79375 v 0.26458 h 0.79375 z m -1.5875,0 h -0.79375 v 0.26458 h 0.79375 z m -1.5875,0 h -0.79375 v 0.26458 h 0.79375 z m -1.5875,0 h -0.79375 v 0.26458 h 0.79375 z m -1.5875,0 h -0.79375 v 0.26458 h 0.79375 z m -1.5875,0 h -0.79375 v 0.26458 h 0.79375 z m -1.5875,0 h -0.79375 v 0.26458 h 0.79375 z m -1.5875,0 h -0.79375 v 0.26458 h 0.79375 z m -1.5875,0 h -0.4736 v 0.26458 0 0.0556 h 0.26458 v -0.0556 h 0.20902 z m -0.20902,1.11389 h -0.26458 v 0.79375 h 0.26458 z m 0,1.5875 h -0.26458 v 0.79375 h 0.26458 z m 0,1.5875 h -0.26458 v 0.79375 h 0.26458 z m 0,1.5875 h -0.26458 v 0.79375 h 0.26458 z m 0,1.5875 h -0.26458 v 0.79375 h 0.26458 z m 0,1.5875 h -0.26458 v 0.79375 h 0.26458 z m 0,1.5875 h -0.26458 v 0.79375 h 0.26458 z m 0,1.5875 h -0.26458 v 0.79375 h 0.26458 z m 0,1.5875 h -0.26458 v 0.79375 h 0.26458 z m 0,1.5875 h -0.26458 v 0.79375 h 0.26458 z m 0,1.5875 h -0.26458 v 0.79375 h 0.26458 z m 0,1.5875 h -0.26458 v 0.79375 h 0.26458 z m 0,1.5875 h -0.26458 v 0.79375 h 0.26458 z m 0,1.5875 h -0.26458 v 0.79375 h 0.26458 z m 0,1.5875 h -0.26458 v 0.79375 h 0.26458 z m 0,1.5875 h -0.26458 v 0.79375 h 0.26458 z m 0,1.5875 h -0.26458 v 0.79376 h 0.26458 z m 0,1.58751 h -0.26458 v 0.79375 h 0.26458 z m 0,1.5875 h -0.26458 v 0.79375 h 0.26458 z m 0,1.5875 h -0.26458 v 0.79375 h 0.26458 z m 0,1.5875 h -0.26458 v 0.79375 h 0.26458 z m 0,1.5875 h -0.26458 v 0.79375 h 0.26458 z m 1.016,0.83608 h -0.79375 v 0.26458 h 0.79375 z m 1.5875,0 h -0.79375 v 0.26458 h 0.79375 z m 1.5875,0 h -0.79375 v 0.26458 h 0.79375 z m 1.5875,0 h -0.79375 v 0.26458 h 0.79375 z m 1.5875,0 h -0.79375 v 0.26458 h 0.79375 z m 1.5875,0 h -0.79375 v 0.26458 h 0.79375 z m 1.5875,0 h -0.79375 v 0.26458 h 0.79375 z m 1.5875,0 h -0.79375 v 0.26458 h 0.79375 z m 1.5875,0 h -0.79375 v 0.26458 h 0.79375 z m 1.5875,0 h -0.79375 v 0.26458 h 0.79375 z m 1.5875,0 h -0.79375 v 0.26458 h 0.79375 z m 1.5875,0 h -0.79375 v 0.26458 h 0.79375 z m 1.5875,0 h -0.79375 v 0.26458 h 0.79375 z m 1.5875,0 h -0.79375 v 0.26458 h 0.79375 z m 1.5875,0 h -0.79375 v 0.26458 h 0.79375 z m 1.5875,0 h -0.79375 v 0.26458 h 0.79375 z m 1.5875,0 h -0.79375 v 0.26458 h 0.79375 z m 1.5875,0 h -0.79375 v 0.26458 h 0.79375 z m 1.5875,0 h -0.79375 v 0.26458 h 0.79375 z m 1.5875,0 h -0.79375 v 0.26458 h 0.79375 z m 1.5875,0 h -0.79375 v 0.26458 h 0.79375 z m 0.79375,-0.52917 h -0.26458 v 0.79375 h 0.26458 z m 0,-1.5875 h -0.26458 v 0.79375 h 0.26458 z m 0,-1.5875 h -0.26458 v 0.79375 h 0.26458 z m 0,-1.5875 h -0.26458 v 0.79375 h 0.26458 z m 0,-1.5875 h -0.26458 v 0.79375 h 0.26458 z m 0,-1.5875 h -0.26458 v 0.79375 h 0.26458 z m 0,-1.5875 h -0.26458 v 0.79375 h 0.26458 z m 0,-1.5875 h -0.26458 v 0.79375 h 0.26458 z m 0,-1.5875 h -0.26458 v 0.79375 h 0.26458 z m 0,-1.5875 h -0.26458 v 0.79375 h 0.26458 z m 0,-1.5875 h -0.26458 v 0.79375 h 0.26458 z m 0,-1.5875 h -0.26458 v 0.79375 h 0.26458 z m 0,-1.5875 h -0.26458 v 0.79375 h 0.26458 z m 0,-1.5875 h -0.26458 v 0.79375 h 0.26458 z m 0,-1.5875 h -0.26458 v 0.79375 h 0.26458 z m 0,-1.5875 h -0.26458 v 0.79375 h 0.26458 z m 0,-1.5875 h -0.26458 v 0.79375 h 0.26458 z m 0,-1.5875 h -0.26458 v 0.79375 h 0.26458 z m 0,-1.5875 h -0.26458 v 0.79375 h 0.26458 z m 0,-1.5875 h -0.26458 v 0.79375 h 0.26458 z m 0,-1.5875 h -0.26458 v 0.79375 h 0.26458 z m 0,-1.5875 h -0.26458 v 0.79375 h 0.26458 z m 0,-1.40758 h -0.79375 v 0.26458 h 0.52917 v 0.34925 h 0.26458 v -0.62706 z"
       id="path1003"
       inkscape:connector-curvature="0"
       style="fill:#707070;stroke-width:0.26458332" />
    <g
       id="paths"
       transform="matrix(0.26458333,0,0,0.26458333,3.8103741,182.77899)">
      <g
         id="Virtual_machine"
         data-name="Virtual machine">
        <path
           class="cls-1"
           d="m 534,125.85 h 15.41 V 115.51 H 534 Z m 11.09,-3 -2.91,1.69 v -3.38 l 2.91,-1.69 z m -3.19,-5.54 2.91,1.69 -2.91,1.69 L 539,119 Z m -3.1,2.16 2.91,1.69 v 3.38 l -2.91,-1.69 z"
           transform="translate(-227.66,-27)"
           id="path1005"
           inkscape:connector-curvature="0"
           style="fill:#0078d7" />
        <path
           class="cls-1"
           d="m 559.68,107.81 h -37.3 a 1.78,1.78 0 0 0 -1.79,1.79 v 29.13 a 1.78,1.78 0 0 0 1.79,1.79 h 37.3 a 1.78,1.78 0 0 0 1.79,-1.79 v -29.14 a 1.78,1.78 0 0 0 -1.79,-1.78 z m -18.79,27.06 -1.13,3.38 v 0.09 l -0.09,0.09 h -1 v -0.09 L 537.51,135 v -0.28 h 0.75 v 0.09 l 0.94,2.91 v 0 l 0.94,-2.91 v -0.09 l 0.09,-0.09 h 0.56 v 0.09 c 0.21,0.06 0.21,0.15 0.1,0.15 z m 5,3.48 v 0 a 0.29,0.29 0 0 1 -0.19,0.09 h -0.56 v -3.19 0 l -1,3.1 v 0.09 h -0.75 v -0.09 l -1.13,-3.1 v 0 3.19 h -0.75 V 135 c 0,-0.09 0,-0.19 0.09,-0.19 0.09,0 0.09,-0.09 0.19,-0.09 h 0.66 c 0.09,0 0.09,0 0.19,0.09 l 0.09,0.09 c 0,0.09 0.09,0.09 0.09,0.19 l 0.85,2.26 v 0 l 0.85,-2.26 a 0.33,0.33 0 0 1 0.09,-0.19 0.09,0.09 0 0 1 0.09,-0.09 0.33,0.33 0 0 1 0.19,-0.09 h 0.85 a 0.09,0.09 0 0 1 0.09,0.09 0.09,0.09 0 0 0 0.09,0.09 v 3.48 z m 4.79,-12.22 a 0.94,0.94 0 0 1 -0.94,0.94 h -5.64 c -0.56,2.16 -0.28,2.44 3.48,2.44 v 0.94 h -11.76 v -0.94 c 3.38,0 3.95,-0.28 3.48,-2.44 h -5.54 a 0.94,0.94 0 0 1 -0.94,-0.94 v -10.9 a 1,1 0 0 1 0.94,-1 h 16 a 1,1 0 0 1 0.94,1 z"
           transform="translate(-227.66,-27)"
           id="path1007"
           inkscape:connector-curvature="0"
           style="fill:#0078d7" />
      </g>
    </g>
    <g
       id="paths-3"
       data-name="paths"
       transform="matrix(0.26458333,0,0,0.26458333,3.8103741,182.77899)">
      <g
         id="Virtual_machine-2"
         data-name="Virtual machine">
        <path
           class="cls-1"
           d="m 534.5,166.25 h 15.41 V 155.92 H 534.5 Z m 11.09,-3 -2.91,1.69 v -3.38 l 2.91,-1.69 z m -3.19,-5.54 2.91,1.69 -2.91,1.69 -2.91,-1.69 z m -3.1,2.16 2.91,1.69 v 3.38 l -2.91,-1.69 z"
           transform="translate(-227.66,-27)"
           id="path1011"
           inkscape:connector-curvature="0"
           style="fill:#0078d7" />
        <path
           class="cls-1"
           d="m 560.15,148.21 h -37.3 a 1.78,1.78 0 0 0 -1.79,1.79 v 29.13 a 1.78,1.78 0 0 0 1.79,1.79 h 37.3 a 1.78,1.78 0 0 0 1.79,-1.79 V 150 a 1.78,1.78 0 0 0 -1.79,-1.79 z m -18.79,27.06 -1.13,3.38 v 0.09 l -0.09,0.09 h -1 v -0.09 L 538,175.37 v -0.28 h 0.75 v 0.09 l 0.94,2.91 v 0 l 0.94,-2.91 v -0.09 l 0.09,-0.09 h 0.56 v 0.09 c 0.17,0.09 0.17,0.19 0.08,0.19 z m 5,3.48 v 0 a 0.29,0.29 0 0 1 -0.19,0.09 h -0.56 v -3.19 0 l -1,3.1 v 0.09 h -0.75 v -0.09 l -1.13,-3.1 v 0 3.19 h -0.75 v -3.48 c 0,-0.09 0,-0.19 0.09,-0.19 0.09,0 0.09,-0.09 0.19,-0.09 h 0.66 c 0.09,0 0.09,0 0.19,0.09 l 0.09,0.09 c 0,0.09 0.09,0.09 0.09,0.19 l 0.85,2.26 v 0 l 0.85,-2.26 a 0.33,0.33 0 0 1 0.09,-0.19 0.09,0.09 0 0 1 0.09,-0.09 0.33,0.33 0 0 1 0.19,-0.09 h 0.85 a 0.09,0.09 0 0 1 0.09,0.09 0.09,0.09 0 0 0 0.09,0.09 v 3.48 z m 4.79,-12.22 a 0.94,0.94 0 0 1 -0.94,0.94 h -5.64 c -0.56,2.16 -0.28,2.44 3.48,2.44 v 0.94 h -11.76 v -0.94 c 3.38,0 3.95,-0.28 3.48,-2.44 h -5.54 a 0.94,0.94 0 0 1 -0.94,-0.94 v -10.9 a 1,1 0 0 1 0.94,-1 h 16 a 1,1 0 0 1 0.94,1 z"
           transform="translate(-227.66,-27)"
           id="path1013"
           inkscape:connector-curvature="0"
           style="fill:#0078d7" />
      </g>
    </g>
    <g
       id="paths-4"
       data-name="paths"
       transform="matrix(0.26458333,0,0,0.26458333,3.8103741,182.77899)">
      <g
         id="Virtual_machine-3"
         data-name="Virtual machine">
        <path
           class="cls-1"
           d="m 534,85.45 h 15.41 V 75.11 H 534 Z m 11.09,-3 -2.91,1.69 v -3.39 l 2.91,-1.69 z m -3.19,-5.54 2.91,1.69 -2.91,1.69 -2.9,-1.7 z m -3.1,2.16 2.91,1.69 v 3.38 l -2.91,-1.69 z"
           transform="translate(-227.66,-27)"
           id="path1017"
           inkscape:connector-curvature="0"
           style="fill:#0078d7" />
        <path
           class="cls-1"
           d="m 559.68,67.4 h -37.3 a 1.78,1.78 0 0 0 -1.79,1.79 v 29.13 a 1.78,1.78 0 0 0 1.79,1.79 h 37.3 a 1.78,1.78 0 0 0 1.79,-1.79 V 69.19 a 1.78,1.78 0 0 0 -1.79,-1.79 z m -18.79,27.07 -1.13,3.38 v 0.09 l -0.09,0.09 h -1 v -0.09 l -1.13,-3.38 v -0.28 h 0.75 v 0.09 l 0.94,2.91 v 0 l 0.94,-2.91 v -0.09 l 0.09,-0.09 h 0.56 v 0.09 c 0.18,0.09 0.18,0.19 0.07,0.19 z m 5,3.48 v 0 a 0.29,0.29 0 0 1 -0.19,0.09 h -0.56 v -3.2 0 l -1,3.1 V 98 h -0.75 v -0.09 l -1.13,-3.1 v 0 3.19 h -0.75 v -3.44 c 0,-0.09 0,-0.19 0.09,-0.19 0.09,0 0.09,-0.09 0.19,-0.09 h 0.66 c 0.09,0 0.09,0 0.19,0.09 l 0.09,0.09 c 0,0.09 0.09,0.09 0.09,0.19 l 0.85,2.26 v 0 l 0.85,-2.26 a 0.33,0.33 0 0 1 0.09,-0.19 0.09,0.09 0 0 1 0.09,-0.09 0.33,0.33 0 0 1 0.19,-0.09 h 0.85 a 0.09,0.09 0 0 1 0.09,0.09 0.09,0.09 0 0 0 0.09,0.09 v 3.48 z m 4.79,-12.22 a 0.94,0.94 0 0 1 -0.94,0.94 h -5.64 c -0.56,2.16 -0.28,2.44 3.48,2.44 V 90 h -11.76 v -0.94 c 3.38,0 3.95,-0.28 3.48,-2.44 h -5.54 a 0.94,0.94 0 0 1 -0.94,-0.94 V 74.83 a 1,1 0 0 1 0.94,-1 h 16 a 1,1 0 0 1 0.94,1 z"
           transform="translate(-227.66,-27)"
           id="path1019"
           inkscape:connector-curvature="0"
           style="fill:#0078d7" />
      </g>
    </g>
    <path
       class="cls-1"
       d="m 71.930006,214.60043 a 1.1694583,1.1694583 0 0 1 -0.8255,-0.33602 l -5.07206,-5.07206 a 1.127125,1.127125 0 0 1 -0.34925,-0.82021 1.1694583,1.1694583 0 0 1 0.34925,-0.82021 l 5.07206,-5.08264 a 1.127125,1.127125 0 0 1 0.82021,-0.34925 1.1694583,1.1694583 0 0 1 0.82021,0.34925 l 5.07206,5.07206 a 1.1403542,1.1403542 0 0 1 0,1.64041 l -5.06677,5.08265 a 1.1694583,1.1694583 0 0 1 -0.82021,0.34925"
       id="path1023"
       inkscape:connector-curvature="0"
       style="fill:#0078d7;stroke-width:0.26458332" />
    <path
       class="cls-6"
       d="m 77.052336,208.31129 -1.64041,-1.64042 v 1.16946 h -1.74096 a 1.8362083,1.8362083 0 0 0 -1.24354,-1.24884 v -1.69068 h 1.143 l -1.64042,-1.64042 -1.64042,1.64042 h 1.143 v 1.66687 a 1.8362083,1.8362083 0 0 0 -1.24354,1.24354 h -1.73037 v -1.14035 l -1.64042,1.64042 1.64042,1.64041 v -1.16946 h 1.74095 a 1.8362083,1.8362083 0 0 0 1.24355,1.24355 v 1.143 c -0.24871,0.17462 -0.62177,0.5715 -0.62177,0.99483 a 1.1191875,1.1191875 0 0 0 2.23837,0 1.349375,1.349375 0 0 0 -0.62177,-0.99483 v -1.16946 a 1.8362083,1.8362083 0 0 0 1.24354,-1.24354 h 1.74096 v 1.143 z"
       id="path1025"
       inkscape:connector-curvature="0"
       style="fill:#ffffff;stroke-width:0.26458332" />
    <path
       class="cls-1"
       d="m 71.930006,206.99366 a 1.3229167,1.3229167 0 1 0 1.32292,1.32292 1.3229167,1.3229167 0 0 0 -1.32292,-1.32292 z"
       id="path1027"
       inkscape:connector-curvature="0"
       style="fill:#0078d7;stroke-width:0.26458332" />
    <g
       id="paths-5"
       data-name="paths"
       transform="matrix(0.26458333,0,0,0.26458333,3.8103741,182.77899)">
      <g
         id="use1029"
         transform="matrix(0.1825625,0,0,0.1825625,222.05,181.69)">
        <polygon
           style="fill:#0078d7"
           id="polygon1917"
           points="37.2,13.1 39.6,10.7 37.2,8.3 28.9,0 27.5,1.4 36.9,10.7 27.5,20 28.9,21.4 "
           class="cls-1" />
        <polygon
           style="fill:#0078d7"
           id="polygon1919"
           points="2.5,13.1 0,10.7 2.5,8.3 10.7,0 12.1,1.4 2.7,10.7 12.1,20 10.7,21.4 "
           class="cls-1" />
        <path
           style="fill:#0078d7"
           inkscape:connector-curvature="0"
           id="path1921"
           d="m 15,10.7 a 2.43,2.43 0 0 1 -2.4,2.4 2.37,2.37 0 0 1 -2.4,-2.4 2.43,2.43 0 0 1 2.4,-2.4 2.37,2.37 0 0 1 2.4,2.4 z"
           class="cls-1" />
        <path
           style="fill:#0078d7"
           inkscape:connector-curvature="0"
           id="path1923"
           d="m 19.8,8.3 a 2.4,2.4 0 1 1 -2.4,2.4 2.43,2.43 0 0 1 2.4,-2.4 z"
           class="cls-1" />
        <path
           style="fill:#0078d7"
           inkscape:connector-curvature="0"
           id="path1925"
           d="m 27,8.3 a 2.4,2.4 0 1 1 0,4.8 2.4,2.4 0 0 1 0,-4.8 z"
           class="cls-1" />
      </g>
    </g>
    <text
       class="cls-7"
       id="text1032"
       style="font-size:2.98449993px;font-family:SegoeUI, 'Segoe UI';fill:#0078d7;stroke-width:0.26458332"
       x="62.635185"
       y="186.75569">Spoke1 VNet</text>
    <rect
       class="cls-3"
       x="61.489532"
       y="240.20946"
       width="39.777458"
       height="52.704998"
       id="rect1034"
       style="fill:#d8d8d8;stroke-width:0.26458332"
       ry="1.5901312" />
    <rect
       class="cls-4"
       x="64.222694"
       y="248.41418"
       width="33.811104"
       height="35.552063"
       id="rect1036"
       style="fill:#f2f2f2;stroke-width:0.26458332" />
    <path
       class="cls-5"
       d="m 96.446296,248.41419 h -0.79375 v 0.26458 h 0.79375 z m -1.5875,0 h -0.79375 v 0.26458 h 0.79375 z m -1.5875,0 h -0.79375 v 0.26458 h 0.79375 z m -1.5875,0 h -0.79375 v 0.26458 h 0.79375 z m -1.5875,0 h -0.79375 v 0.26458 h 0.79375 z m -1.5875,0 h -0.79375 v 0.26458 h 0.79375 z m -1.5875,0 h -0.79375 v 0.26458 h 0.79375 z m -1.5875,0 h -0.79375 v 0.26458 h 0.79375 z m -1.5875,0 h -0.79375 v 0.26458 h 0.79375 z m -1.5875,0 h -0.79375 v 0.26458 h 0.79375 z m -1.5875,0 h -0.79375 v 0.26458 h 0.79375 z m -1.5875,0 h -0.79375 v 0.26458 h 0.79375 z m -1.5875,0 h -0.79375 v 0.26458 h 0.79375 z m -1.5875,0 h -0.79375 v 0.26458 h 0.79375 z m -1.5875,0 h -0.79375 v 0.26458 h 0.79375 z m -1.5875,0 h -0.79375 v 0.26458 h 0.79375 z m -1.5875,0 h -0.79375 v 0.26458 h 0.79375 z m -1.5875,0 h -0.79375 v 0.26458 h 0.79375 z m -1.5875,0 h -0.79375 v 0.26458 h 0.79375 z m -1.5875,0 h -0.79375 v 0.26458 h 0.79375 z m -1.5875,0 h -0.47096 v 0.26458 0 0.0556 h 0.26459 v -0.0556 h 0.20902 v -0.26458 z m -0.20902,1.11389 h -0.26458 v 0.79375 h 0.26458 z m 0,1.5875 h -0.26458 v 0.79375 h 0.26458 z m 0,1.5875 h -0.26458 v 0.79375 h 0.26458 z m 0,1.5875 h -0.26458 v 0.79375 h 0.26458 z m 0,1.5875 h -0.26458 v 0.79375 h 0.26458 z m 0,1.5875 h -0.26458 v 0.79375 h 0.26458 z m 0,1.5875 h -0.26458 v 0.79375 h 0.26458 z m 0,1.5875 h -0.26458 v 0.79375 h 0.26458 z m 0,1.5875 h -0.26458 v 0.79375 h 0.26458 z m 0,1.5875 h -0.26458 v 0.79375 h 0.26458 z m 0,1.5875 h -0.26458 v 0.79375 h 0.26458 z m 0,1.5875 h -0.26458 v 0.79375 h 0.26458 z m 0,1.5875 h -0.26458 v 0.79375 h 0.26458 z m 0,1.5875 h -0.26458 v 0.79375 h 0.26458 z m 0,1.5875 h -0.26458 v 0.79375 h 0.26458 z m 0,1.5875 h -0.26458 v 0.79375 h 0.26458 z m 0,1.5875 h -0.26458 v 0.79375 h 0.26458 z m 0,1.5875 h -0.26458 v 0.79375 h 0.26458 z m 0,1.5875 h -0.26458 v 0.79375 h 0.26458 z m 0,1.5875 h -0.26458 v 0.79375 h 0.26458 z m 0,1.5875 h -0.26458 v 0.79375 h 0.26458 z m 0,1.5875 h -0.26458 v 0.79375 h 0.26458 z m 1.016,0.83609 h -0.79375 v 0.26458 h 0.79375 z m 1.5875,0 h -0.79375 v 0.26458 h 0.79375 z m 1.5875,0 h -0.79375 v 0.26458 h 0.79375 z m 1.5875,0 h -0.79375 v 0.26458 h 0.79375 z m 1.5875,0 h -0.79375 v 0.26458 h 0.79375 z m 1.5875,0 h -0.79375 v 0.26458 h 0.79375 z m 1.5875,0 h -0.79375 v 0.26458 h 0.79375 z m 1.5875,0 h -0.79375 v 0.26458 h 0.79375 z m 1.5875,0 h -0.79375 v 0.26458 h 0.79375 z m 1.5875,0 h -0.79375 v 0.26458 h 0.79375 z m 1.5875,0 h -0.79375 v 0.26458 h 0.79375 z m 1.5875,0 h -0.79375 v 0.26458 h 0.79375 z m 1.5875,0 h -0.79375 v 0.26458 h 0.79375 z m 1.5875,0 h -0.79375 v 0.26458 h 0.79375 z m 1.5875,0 h -0.79375 v 0.26458 h 0.79375 z m 1.5875,0 h -0.79375 v 0.26458 h 0.79375 z m 1.5875,0 h -0.79375 v 0.26458 h 0.79375 z m 1.5875,0 h -0.79375 v 0.26458 h 0.79375 z m 1.5875,0 h -0.79375 v 0.26458 h 0.79375 z m 1.5875,0 h -0.79375 v 0.26458 h 0.79375 z m 1.5875,0 h -0.79375 v 0.26458 h 0.79375 z m 0.79375,-0.52917 h -0.26458 v 0.79375 h 0.26458 z m 0,-1.5875 h -0.26458 v 0.79375 h 0.26458 z m 0,-1.5875 h -0.26458 v 0.79375 h 0.26458 z m 0,-1.5875 h -0.26458 v 0.79375 h 0.26458 z m 0,-1.5875 h -0.26458 v 0.79375 h 0.26458 z m 0,-1.5875 h -0.26458 v 0.79375 h 0.26458 z m 0,-1.5875 h -0.26458 v 0.79375 h 0.26458 z m 0,-1.5875 h -0.26458 v 0.79375 h 0.26458 z m 0,-1.5875 h -0.26458 v 0.79375 h 0.26458 z m 0,-1.5875 h -0.26458 v 0.79375 h 0.26458 z m 0,-1.5875 h -0.26458 v 0.79375 h 0.26458 z m 0,-1.5875 h -0.26458 v 0.79375 h 0.26458 z m 0,-1.5875 h -0.26458 v 0.79375 h 0.26458 z m 0,-1.5875 h -0.26458 v 0.79375 h 0.26458 z m 0,-1.5875 h -0.26458 v 0.79375 h 0.26458 z m 0,-1.5875 h -0.26458 v 0.79375 h 0.26458 z m 0,-1.5875 h -0.26458 v 0.79375 h 0.26458 z m 0,-1.5875 h -0.26458 v 0.79375 h 0.26458 z m 0,-1.5875 h -0.26458 v 0.79375 h 0.26458 z m 0,-1.5875 h -0.26458 v 0.79375 h 0.26458 z m 0,-1.5875 h -0.26458 v 0.79375 h 0.26458 z m 0,-1.5875 h -0.26458 v 0.79375 h 0.26458 z m 0,-1.40758 h -0.79375 v 0.26458 h 0.52917 v 0.34925 h 0.26458 z"
       id="path1038"
       inkscape:connector-curvature="0"
       style="fill:#707070;stroke-width:0.26458332" />
    <g
       id="paths-6"
       data-name="paths"
       transform="matrix(0.26458333,0,0,0.26458333,3.8103741,182.77899)">
      <g
         id="Virtual_machine-5"
         data-name="Virtual machine">
        <path
           class="cls-1"
           d="m 535.91,342.91 h 15.41 v -10.34 h -15.41 z m 11.09,-3 -2.91,1.69 v -3.38 l 2.91,-1.69 z m -3.19,-5.54 2.91,1.69 -2.91,1.69 -2.92,-1.75 z m -3.1,2.16 2.91,1.69 v 3.38 l -2.91,-1.69 z"
           transform="translate(-227.66,-27)"
           id="path1040"
           inkscape:connector-curvature="0"
           style="fill:#0078d7" />
        <path
           class="cls-1"
           d="m 561.56,324.87 h -37.3 a 1.78,1.78 0 0 0 -1.79,1.79 v 29.13 a 1.78,1.78 0 0 0 1.79,1.79 h 37.3 a 1.78,1.78 0 0 0 1.79,-1.79 v -29.14 a 1.78,1.78 0 0 0 -1.79,-1.78 z m -18.79,27.06 -1.13,3.38 v 0.09 l -0.09,0.09 h -1 v -0.09 l -1.16,-3.4 v -0.28 h 0.75 v 0.09 l 0.94,2.91 v 0 l 0.94,-2.91 v -0.09 l 0.09,-0.09 h 0.56 v 0.09 c 0.19,0.11 0.19,0.21 0.1,0.21 z m 5,3.48 v 0 a 0.29,0.29 0 0 1 -0.19,0.09 H 547 v -3.2 0 l -1,3.1 v 0.09 h -0.75 v -0.09 l -1.13,-3.1 v 0 3.19 h -0.75 V 352 c 0,-0.09 0,-0.19 0.09,-0.19 0.09,0 0.09,-0.09 0.19,-0.09 h 0.66 c 0.09,0 0.09,0 0.19,0.09 l 0.09,0.09 c 0,0.09 0.09,0.09 0.09,0.19 l 0.85,2.26 v 0 l 0.85,-2.26 a 0.33,0.33 0 0 1 0.09,-0.19 0.09,0.09 0 0 1 0.09,-0.09 0.33,0.33 0 0 1 0.19,-0.09 h 0.85 a 0.09,0.09 0 0 1 0.09,0.09 0.09,0.09 0 0 0 0.09,0.09 v 3.48 z m 4.79,-12.22 a 0.94,0.94 0 0 1 -0.94,0.94 H 546 c -0.56,2.16 -0.28,2.44 3.48,2.44 v 0.94 H 537.7 v -0.94 c 3.38,0 3.95,-0.28 3.48,-2.44 h -5.54 a 0.94,0.94 0 0 1 -0.94,-0.94 v -10.9 a 1,1 0 0 1 0.94,-1 h 16 a 1,1 0 0 1 0.94,1 z"
           transform="translate(-227.66,-27)"
           id="path1042"
           inkscape:connector-curvature="0"
           style="fill:#0078d7" />
      </g>
    </g>
    <g
       id="paths-7"
       data-name="paths"
       transform="matrix(0.26458333,0,0,0.26458333,3.8103741,182.77899)">
      <g
         id="Virtual_machine-6"
         data-name="Virtual machine">
        <path
           class="cls-1"
           d="m 536.38,383.31 h 15.41 V 373 h -15.41 z m 11.09,-3 -2.92,1.69 v -3.38 l 2.91,-1.69 z m -3.19,-5.54 2.91,1.69 -2.91,1.69 -2.91,-1.69 z m -3.1,2.16 2.91,1.69 V 382 l -2.91,-1.69 z"
           transform="translate(-227.66,-27)"
           id="path1046"
           inkscape:connector-curvature="0"
           style="fill:#0078d7" />
        <path
           class="cls-1"
           d="m 562,365.27 h -37.3 a 1.78,1.78 0 0 0 -1.79,1.79 v 29.13 a 1.78,1.78 0 0 0 1.79,1.79 H 562 a 1.78,1.78 0 0 0 1.79,-1.79 V 367.06 A 1.78,1.78 0 0 0 562,365.27 Z m -18.79,27.06 -1.13,3.38 v 0.09 l -0.09,0.09 h -1 v -0.09 l -1.13,-3.38 v -0.28 h 0.75 v 0.09 l 0.94,2.91 v 0 l 0.94,-2.91 v -0.09 l 0.09,-0.09 h 0.56 v 0.09 c 0.19,0.1 0.19,0.19 0.1,0.19 z m 5,3.48 v 0 a 0.29,0.29 0 0 1 -0.19,0.09 h -0.56 v -3.19 0 l -1,3.1 v 0.09 h -0.75 v -0.09 l -1.13,-3.1 v 0 3.19 h -0.75 v -3.48 c 0,-0.09 0,-0.19 0.09,-0.19 0.09,0 0.09,-0.09 0.19,-0.09 h 0.66 c 0.09,0 0.09,0 0.19,0.09 l 0.09,0.09 c 0,0.09 0.09,0.09 0.09,0.19 l 0.85,2.26 v 0 l 0.85,-2.26 a 0.33,0.33 0 0 1 0.09,-0.19 0.09,0.09 0 0 1 0.09,-0.09 0.33,0.33 0 0 1 0.19,-0.09 H 548 a 0.09,0.09 0 0 1 0.09,0.09 0.09,0.09 0 0 0 0.09,0.09 v 3.48 z M 553,383.59 a 0.94,0.94 0 0 1 -0.94,0.94 h -5.64 c -0.56,2.16 -0.28,2.44 3.48,2.44 v 0.94 H 538.17 V 387 c 3.38,0 3.95,-0.28 3.48,-2.44 h -5.55 a 0.94,0.94 0 0 1 -0.94,-0.94 v -10.9 a 1,1 0 0 1 0.94,-1 h 16 a 1,1 0 0 1 0.94,1 z"
           transform="translate(-227.66,-27)"
           id="path1048"
           inkscape:connector-curvature="0"
           style="fill:#0078d7" />
      </g>
    </g>
    <g
       id="paths-8"
       data-name="paths"
       transform="matrix(0.26458333,0,0,0.26458333,3.8103741,182.77899)">
      <g
         id="Virtual_machine-7"
         data-name="Virtual machine">
        <path
           class="cls-1"
           d="m 535.91,302.5 h 15.41 v -10.33 h -15.41 z m 11.09,-3 -2.91,1.69 v -3.39 l 2.91,-1.69 z m -3.2,-5.5 2.91,1.69 -2.91,1.69 -2.91,-1.69 z m -3.1,2.16 2.91,1.69 v 3.38 l -2.91,-1.69 z"
           transform="translate(-227.66,-27)"
           id="path1052"
           inkscape:connector-curvature="0"
           style="fill:#0078d7" />
        <path
           class="cls-1"
           d="m 561.56,284.46 h -37.3 a 1.78,1.78 0 0 0 -1.79,1.79 v 29.13 a 1.78,1.78 0 0 0 1.79,1.79 h 37.3 a 1.78,1.78 0 0 0 1.79,-1.79 v -29.13 a 1.78,1.78 0 0 0 -1.79,-1.79 z m -18.79,27.06 -1.13,3.38 v 0.1 l -0.09,0.09 h -1 V 315 l -1.13,-3.38 v -0.28 h 0.75 v 0.09 l 0.94,2.91 v 0 l 0.94,-2.91 v -0.09 l 0.09,-0.09 h 0.56 v 0.09 c 0.16,0.09 0.16,0.18 0.07,0.18 z m 5,3.48 v 0 a 0.29,0.29 0 0 1 -0.19,0.09 H 547 v -3.19 0 l -1,3.1 v 0.09 h -0.75 V 315 l -1.13,-3.1 v 0 3.19 h -0.75 v -3.48 c 0,-0.09 0,-0.19 0.09,-0.19 0.09,0 0.09,-0.09 0.19,-0.09 h 0.66 c 0.09,0 0.09,0 0.19,0.09 l 0.09,0.09 c 0,0.09 0.09,0.09 0.09,0.19 l 0.85,2.26 v 0 l 0.85,-2.26 a 0.33,0.33 0 0 1 0.09,-0.19 0.09,0.09 0 0 1 0.09,-0.09 0.33,0.33 0 0 1 0.19,-0.09 h 0.85 a 0.09,0.09 0 0 1 0.09,0.09 0.09,0.09 0 0 0 0.09,0.09 V 315 Z m 4.79,-12.22 a 0.94,0.94 0 0 1 -0.94,0.94 H 546 c -0.56,2.16 -0.28,2.44 3.48,2.44 v 0.94 H 537.7 v -0.94 c 3.38,0 3.95,-0.28 3.48,-2.44 h -5.54 a 0.94,0.94 0 0 1 -0.94,-0.94 v -10.9 a 1,1 0 0 1 0.94,-1 h 16 a 1,1 0 0 1 0.94,1 z"
           transform="translate(-227.66,-27)"
           id="path1054"
           inkscape:connector-curvature="0"
           style="fill:#0078d7" />
      </g>
    </g>
    <path
       class="cls-1"
       d="m 72.427426,272.03089 a 1.1694583,1.1694583 0 0 1 -0.82021,-0.34925 l -5.07206,-5.07206 a 1.127125,1.127125 0 0 1 -0.34925,-0.82021 1.1694583,1.1694583 0 0 1 0.34925,-0.8202 l 5.07206,-5.07207 a 1.127125,1.127125 0 0 1 0.82021,-0.34925 1.1694583,1.1694583 0 0 1 0.8202,0.34925 l 5.07207,5.07207 a 1.1403542,1.1403542 0 0 1 0,1.64041 l -5.07207,5.06942 a 1.1694583,1.1694583 0 0 1 -0.8202,0.34925"
       id="path1058"
       inkscape:connector-curvature="0"
       style="fill:#0078d7;stroke-width:0.26458332" />
    <path
       class="cls-6"
       d="m 77.549756,265.74175 -1.64042,-1.64042 v 1.16946 h -1.74096 a 1.8362083,1.8362083 0 0 0 -1.24354,-1.24354 v -1.69069 h 1.143 l -1.64041,-1.64042 -1.64042,1.64042 h 1.143 v 1.66952 a 1.8362083,1.8362083 0 0 0 -1.24354,1.24354 h -1.74096 v -1.143 l -1.64042,1.64042 1.64042,1.64042 V 266.218 h 1.74096 a 1.8362083,1.8362083 0 0 0 1.24354,1.24354 v 1.143 c -0.24871,0.17463 -0.62177,0.5715 -0.62177,0.99483 a 1.1191875,1.1191875 0 0 0 2.23837,0 1.349375,1.349375 0 0 0 -0.62177,-0.99483 v -1.16946 a 1.8362083,1.8362083 0 0 0 1.24354,-1.24354 h 1.74096 v 1.143 z"
       id="path1060"
       inkscape:connector-curvature="0"
       style="fill:#ffffff;stroke-width:0.26458332" />
    <path
       class="cls-1"
       d="m 72.427426,264.42412 a 1.3229167,1.3229167 0 1 0 1.32291,1.32292 1.3229167,1.3229167 0 0 0 -1.32291,-1.32292 z"
       id="path1062"
       inkscape:connector-curvature="0"
       style="fill:#0078d7;stroke-width:0.26458332" />
    <g
       id="paths-9"
       data-name="paths"
       transform="matrix(0.26458333,0,0,0.26458333,3.8103741,182.77899)">
      <g
         id="use1064"
         transform="matrix(0.1825625,0,0,0.1825625,223.93,398.74)">
        <polygon
           style="fill:#0078d7"
           id="polygon1929"
           points="37.2,13.1 39.6,10.7 37.2,8.3 28.9,0 27.5,1.4 36.9,10.7 27.5,20 28.9,21.4 "
           class="cls-1" />
        <polygon
           style="fill:#0078d7"
           id="polygon1931"
           points="2.5,13.1 0,10.7 2.5,8.3 10.7,0 12.1,1.4 2.7,10.7 12.1,20 10.7,21.4 "
           class="cls-1" />
        <path
           style="fill:#0078d7"
           inkscape:connector-curvature="0"
           id="path1933"
           d="m 15,10.7 a 2.43,2.43 0 0 1 -2.4,2.4 2.37,2.37 0 0 1 -2.4,-2.4 2.43,2.43 0 0 1 2.4,-2.4 2.37,2.37 0 0 1 2.4,2.4 z"
           class="cls-1" />
        <path
           style="fill:#0078d7"
           inkscape:connector-curvature="0"
           id="path1935"
           d="m 19.8,8.3 a 2.4,2.4 0 1 1 -2.4,2.4 2.43,2.43 0 0 1 2.4,-2.4 z"
           class="cls-1" />
        <path
           style="fill:#0078d7"
           inkscape:connector-curvature="0"
           id="path1937"
           d="m 27,8.3 a 2.4,2.4 0 1 1 0,4.8 2.4,2.4 0 0 1 0,-4.8 z"
           class="cls-1" />
      </g>
    </g>
    <text
       class="cls-7"
       id="text1067"
       style="font-size:2.98449993px;font-family:SegoeUI, 'Segoe UI';fill:#0078d7;stroke-width:0.26458332"
       x="62.635185"
       y="244.18614">Spoke2 VNet</text>
    <g
       id="paths-10"
       data-name="paths"
       transform="matrix(0.26458333,0,0,0.26458333,3.8103741,182.77899)">
      <g
         id="Virtual_machine-9"
         data-name="Virtual machine">
        <path
           class="cls-1"
           d="m 330.13,226.39 h 15.41 v -10.33 h -15.41 z m 11.09,-3 -2.91,1.69 v -3.38 l 2.91,-1.69 z m -3.22,-5.55 2.91,1.69 -2.91,1.69 -2.91,-1.69 z m -3.1,2.16 2.91,1.69 v 3.38 l -2.91,-1.69 z"
           transform="translate(-227.66,-27)"
           id="path1069"
           inkscape:connector-curvature="0"
           style="fill:#0078d7" />
        <path
           class="cls-1"
           d="m 355.78,208.35 h -37.3 a 1.78,1.78 0 0 0 -1.79,1.79 v 29.13 a 1.78,1.78 0 0 0 1.79,1.79 h 37.3 a 1.78,1.78 0 0 0 1.79,-1.79 v -29.13 a 1.78,1.78 0 0 0 -1.79,-1.79 z m -18.78,27.06 -1.13,3.38 v 0.09 l -0.09,0.09 h -1 v -0.09 l -1.13,-3.38 v -0.28 h 0.75 v 0.09 l 0.94,2.91 v 0 l 0.94,-2.91 v -0.09 l 0.09,-0.09 h 0.56 v 0.09 c 0.15,0.1 0.15,0.19 0.07,0.19 z m 5,3.48 v 0 a 0.29,0.29 0 0 1 -0.19,0.09 h -0.56 v -3.19 0 l -1,3.1 V 239 h -0.75 v -0.09 l -1.13,-3.1 v 0 3.19 h -0.75 v -3.48 c 0,-0.09 0,-0.19 0.09,-0.19 0.09,0 0.09,-0.09 0.19,-0.09 h 0.66 c 0.09,0 0.09,0 0.19,0.09 l 0.09,0.09 c 0,0.09 0.09,0.09 0.09,0.19 l 0.85,2.26 v 0 l 0.85,-2.26 a 0.33,0.33 0 0 1 0.09,-0.19 0.09,0.09 0 0 1 0.09,-0.09 0.33,0.33 0 0 1 0.19,-0.09 h 0.85 a 0.09,0.09 0 0 1 0.09,0.09 0.09,0.09 0 0 0 0.09,0.09 v 3.48 z m 4.79,-12.22 a 0.94,0.94 0 0 1 -0.94,0.94 h -5.64 c -0.56,2.16 -0.28,2.44 3.48,2.44 V 231 h -11.78 v -0.94 c 3.38,0 3.95,-0.28 3.48,-2.44 h -5.54 a 0.94,0.94 0 0 1 -0.94,-0.94 v -10.9 a 1,1 0 0 1 0.94,-1 h 16 a 1,1 0 0 1 0.94,1 z"
           transform="translate(-227.66,-27)"
           id="path1071"
           inkscape:connector-curvature="0"
           style="fill:#0078d7" />
      </g>
    </g>
    <g
       id="paths-11"
       data-name="paths"
       transform="matrix(0.26458333,0,0,0.26458333,3.8103741,182.77899)">
      <g
         id="Virtual_machine-10"
         data-name="Virtual machine">
        <path
           class="cls-1"
           d="M 330.6,266.8 H 346 v -10.34 h -15.4 z m 11.09,-3 -2.91,1.69 v -3.39 l 2.91,-1.69 z m -3.19,-5.54 2.91,1.69 -2.91,1.69 -2.91,-1.69 z m -3.1,2.16 2.91,1.69 v 3.38 l -2.91,-1.69 z"
           transform="translate(-227.66,-27)"
           id="path1075"
           inkscape:connector-curvature="0"
           style="fill:#0078d7" />
        <path
           class="cls-1"
           d="m 356.25,248.76 h -37.3 a 1.78,1.78 0 0 0 -1.79,1.79 v 29.13 a 1.78,1.78 0 0 0 1.79,1.79 h 37.3 a 1.78,1.78 0 0 0 1.79,-1.79 v -29.14 a 1.78,1.78 0 0 0 -1.79,-1.78 z m -18.79,27.06 -1.13,3.38 v 0.09 l -0.09,0.09 h -1 v -0.09 l -1.13,-3.38 v -0.28 h 0.75 v 0.09 l 0.94,2.91 v 0 l 0.94,-2.91 v -0.09 l 0.09,-0.09 h 0.56 v 0.09 c 0.16,0.09 0.16,0.19 0.07,0.19 z m 5,3.48 v 0 a 0.29,0.29 0 0 1 -0.19,0.09 h -0.56 v -3.19 0 l -1,3.1 v 0.09 h -0.75 v -0.09 l -1.13,-3.1 v 0 3.19 H 338 v -3.48 c 0,-0.09 0,-0.19 0.09,-0.19 0.09,0 0.09,-0.09 0.19,-0.09 H 339 c 0.09,0 0.09,0 0.19,0.09 l 0.09,0.09 c 0,0.09 0.09,0.09 0.09,0.19 l 0.85,2.26 v 0 L 341,276 a 0.33,0.33 0 0 1 0.09,-0.19 0.09,0.09 0 0 1 0.09,-0.09 0.33,0.33 0 0 1 0.19,-0.09 h 0.85 a 0.09,0.09 0 0 1 0.09,0.09 0.09,0.09 0 0 0 0.09,0.09 v 3.48 z m 4.79,-12.22 a 0.94,0.94 0 0 1 -0.94,0.94 h -5.64 c -0.56,2.16 -0.28,2.44 3.48,2.44 v 0.94 h -11.77 v -0.94 c 3.38,0 3.95,-0.28 3.48,-2.44 h -5.54 a 0.94,0.94 0 0 1 -0.94,-0.94 v -10.9 a 1,1 0 0 1 0.94,-1 h 16 a 1,1 0 0 1 0.94,1 z"
           transform="translate(-227.66,-27)"
           id="path1077"
           inkscape:connector-curvature="0"
           style="fill:#0078d7" />
      </g>
    </g>
    <g
       id="paths-12"
       data-name="paths"
       transform="matrix(0.26458333,0,0,0.26458333,3.8103741,182.77899)">
      <g
         id="use1081"
         transform="matrix(0.1825625,0,0,0.1825625,5.93,296.32)">
        <polygon
           style="fill:#0078d7"
           id="polygon1941"
           points="37.2,13.1 39.6,10.7 37.2,8.3 28.9,0 27.5,1.4 36.9,10.7 27.5,20 28.9,21.4 "
           class="cls-1" />
        <polygon
           style="fill:#0078d7"
           id="polygon1943"
           points="2.5,13.1 0,10.7 2.5,8.3 10.7,0 12.1,1.4 2.7,10.7 12.1,20 10.7,21.4 "
           class="cls-1" />
        <path
           style="fill:#0078d7"
           inkscape:connector-curvature="0"
           id="path1945"
           d="m 15,10.7 a 2.43,2.43 0 0 1 -2.4,2.4 2.37,2.37 0 0 1 -2.4,-2.4 2.43,2.43 0 0 1 2.4,-2.4 2.37,2.37 0 0 1 2.4,2.4 z"
           class="cls-1" />
        <path
           style="fill:#0078d7"
           inkscape:connector-curvature="0"
           id="path1947"
           d="m 19.8,8.3 a 2.4,2.4 0 1 1 -2.4,2.4 2.43,2.43 0 0 1 2.4,-2.4 z"
           class="cls-1" />
        <path
           style="fill:#0078d7"
           inkscape:connector-curvature="0"
           id="path1949"
           d="m 27,8.3 a 2.4,2.4 0 1 1 0,4.8 2.4,2.4 0 0 1 0,-4.8 z"
           class="cls-1" />
      </g>
    </g>
    <text
       class="cls-7"
       id="text1084"
       style="font-size:2.98449993px;font-family:SegoeUI, 'Segoe UI';fill:#0078d7;stroke-width:0.26458332"
       x="6.5461659"
       y="217.08752">Hub VNet</text>
    <rect
       class="cls-8"
       x="65.696457"
       y="191.89267"
       width="11.435292"
       height="8.2047291"
       transform="rotate(0.17654945)"
       id="rect1086"
       style="fill:#ffffff;stroke:#0078d7;stroke-width:0.26458332;stroke-miterlimit:10" />
    <text
       class="cls-7"
       transform="rotate(-1.1457628)"
       id="text1088"
       style="font-size:2.98509669px;font-family:SegoeUI, 'Segoe UI';fill:#0078d7;stroke-width:0.26463625"
       x="63.907833"
       y="198.45551">UDR</text>
    <rect
       class="cls-8"
       x="65.341888"
       y="274.39362"
       width="11.435292"
       height="8.2047291"
       id="rect1090"
       style="fill:#ffffff;stroke:#0078d7;stroke-width:0.26458332;stroke-miterlimit:10" />
    <text
       class="cls-7"
       id="text1092"
       style="font-size:2.98449993px;font-family:SegoeUI, 'Segoe UI';fill:#0078d7;stroke-width:0.26458332"
       x="68.096184"
       y="279.37042">UDR</text>
    <path
       class="cls-9"
       d="m 65.093176,196.20395 c -33.374552,2.64584 -47.048212,27.48757 -50.405772,34.90119"
       id="path1094"
       inkscape:connector-curvature="0"
       style="fill:none;stroke:#f15a24;stroke-width:0.79374999px;stroke-miterlimit:10" />
    <path
       class="cls-10"
       d="m 13.822214,233.18212 a 11.273896,11.273896 0 0 0 -0.39688,-3.62743 l 1.38377,1.28323 1.88384,0.10054 a 11.265958,11.265958 0 0 0 -2.87073,2.24366 z"
       id="path1096"
       inkscape:connector-curvature="0"
       style="fill:#f15a24;stroke-width:0.26458332" />
    <path
       class="cls-9"
       d="M 65.093176,279.24079 C 31.993794,276.83837 18.261924,254.79858 14.772064,247.92206"
       id="path1098"
       inkscape:connector-curvature="0"
       style="fill:none;stroke:#f15a24;stroke-width:0.79374999px;stroke-miterlimit:10" />
    <path
       class="cls-10"
       d="m 13.822214,245.88212 a 11.273896,11.273896 0 0 0 2.96862,2.11667 l -1.87854,0.17992 -1.32292,1.33879 a 11.265958,11.265958 0 0 0 0.23284,-3.63538 z"
       id="path1100"
       inkscape:connector-curvature="0"
       style="fill:#f15a24;stroke-width:0.26458332" />
    <path
       class="cls-1"
       d="M 18.021154,234.08171 H 7.8426241 a 0.63764583,0.63764583 0 0 0 -0.635,0.635 v 7.21254 a 0.66410417,0.66410417 0 0 0 0.635,0.66675 h 3.4845699 c 0.36512,1.32292 0.21166,1.45521 -2.0002499,1.45521 v 0.66675 h 7.2733899 v -0.66675 c -2.21191,0 -2.51618,-0.12436 -2.15106,-1.45521 h 3.57452 a 0.71702083,0.71702083 0 0 0 0.69586,-0.60854 v -7.27075 a 0.6905625,0.6905625 0 0 0 -0.69586,-0.635 z m -0.21167,7.57502 H 8.0542941 l 0.0609,-6.69661 9.6943299,0.0318 z"
       id="path1102"
       inkscape:connector-curvature="0"
       style="fill:#0078d7;stroke-width:0.26458332" />
    <text
       class="cls-11"
       id="text1114"
       style="font-size:2.3812499px;font-family:SegoeUI, 'Segoe UI';stroke-width:0.26458332"
       x="9.4063196"
       y="237.98959">
      <tspan
         class="cls-12"
         id="tspan1104"
         style="letter-spacing:-0.03em;stroke-width:0.26458332">R</tspan>
      <tspan
         x="10.76098"
         y="237.98959"
         id="tspan1106"
         style="stroke-width:0.26458332">outer</tspan>
      <tspan
         x="10.567834"
         y="240.84709"
         id="tspan1108"
         style="stroke-width:0.26458332">N</tspan>
      <tspan
         class="cls-13"
         x="12.348489"
         y="240.84709"
         id="tspan1110"
         style="letter-spacing:-0.06em;stroke-width:0.26458332">V</tspan>
      <tspan
         x="13.68728"
         y="240.84709"
         id="tspan1112"
         style="stroke-width:0.26458332">A</tspan>
    </text>
  </g>
</svg>
